<svg width="400" height="300" viewBox="0 0 400 300" fill="none" xmlns="http://www.w3.org/2000/svg">
  <defs>
    <linearGradient id="bg" x1="0%" y1="0%" x2="100%" y2="100%">
      <stop offset="0%" style="stop-color:#667eea;stop-opacity:1" />
      <stop offset="100%" style="stop-color:#764ba2;stop-opacity:1" />
    </linearGradient>
  </defs>
  
  <!-- Background -->
  <rect width="400" height="300" fill="url(#bg)"/>
  
  <!-- Event Icon -->
  <g transform="translate(200, 150)">
    <!-- Calendar -->
    <rect x="-40" y="-35" width="80" height="70" rx="8" fill="white" fill-opacity="0.9"/>
    <rect x="-40" y="-35" width="80" height="20" rx="8" fill="white"/>
    <rect x="-30" y="-45" width="4" height="20" rx="2" fill="#6366f1"/>
    <rect x="26" y="-45" width="4" height="20" rx="2" fill="#6366f1"/>
    
    <!-- Date -->
    <text x="0" y="-5" text-anchor="middle" font-family="Inter, sans-serif" font-size="18" font-weight="600" fill="#1f2937">28</text>
    <text x="0" y="15" text-anchor="middle" font-family="Inter, sans-serif" font-size="10" font-weight="500" fill="#6b7280">FEB</text>
    
    <!-- Music Notes -->
    <circle cx="-60" cy="20" r="3" fill="white" fill-opacity="0.8"/>
    <ellipse cx="-60" cy="20" rx="2" ry="1" fill="white" fill-opacity="0.8"/>
    <rect x="-58" y="5" width="1" height="15" fill="white" fill-opacity="0.8"/>
    
    <circle cx="60" cy="-20" r="3" fill="white" fill-opacity="0.8"/>
    <ellipse cx="60" cy="-20" rx="2" ry="1" fill="white" fill-opacity="0.8"/>
    <rect x="62" y="-35" width="1" height="15" fill="white" fill-opacity="0.8"/>
  </g>
  
  <!-- Event Text -->
  <text x="200" y="220" text-anchor="middle" font-family="Inter, sans-serif" font-size="16" font-weight="500" fill="white" fill-opacity="0.9">Event Image</text>
  <text x="200" y="240" text-anchor="middle" font-family="Inter, sans-serif" font-size="12" fill="white" fill-opacity="0.7">Kein Bild verfügbar</text>
</svg>
